
<svg version="1.0" xmlns="http://www.w3.org/2000/svg"
 width="3000.000000pt" height="3000.000000pt" viewBox="0 0 3000.000000 3000.000000"
 preserveAspectRatio="xMidYMid meet">
<g transform="translate(0.000000,3000.000000) scale(0.100000,-0.100000)"
fill="#000000" stroke="none">
<path d="M0 15000 l0 -15000 15000 0 15000 0 0 15000 0 15000 -15000 0 -15000
0 0 -15000z m12275 6883 c-2 -10 -4 -19 -5 -20 -8 -9 -5 -3230 3 -3240 11 -15
-1125 -1160 -1253 -1264 -143 -115 -355 -208 -543 -239 -95 -15 -307 -12 -395
6 -424 86 -758 375 -894 774 -41 121 -58 233 -58 382 0 250 62 451 205 663 44
64 344 369 1492 1518 791 790 1441 1437 1445 1437 3 0 5 -8 3 -17z m6480
-4708 l0 -1645 -605 -609 c-618 -623 -685 -684 -836 -763 -90 -47 -256 -103
-354 -119 -41 -7 -127 -13 -190 -13 -144 0 -236 15 -370 60 -679 227 -996
1000 -671 1641 84 167 105 189 1165 1248 1219 1219 1850 1845 1856 1845 3 0 5
-740 5 -1645z m-10275 -5540 l0 -945 585 0 585 0 0 -275 0 -275 -930 0 -930 0
0 1220 0 1220 345 0 345 0 0 -945z m12291 -255 c291 -657 533 -1205 539 -1217
l10 -23 -359 0 -359 0 -94 235 -93 235 -519 -3 -520 -2 -92 -230 -92 -230
-351 -3 c-193 -1 -351 0 -351 4 0 3 235 538 521 1187 287 650 528 1197 536
1215 l13 32 341 -2 341 -3 529 -1195z m1429 -20 l0 -1220 -345 0 -345 0 0
1213 c0 668 3 1217 7 1220 3 4 159 7 345 7 l338 0 0 -1220z m-9350 845 l0
-245 218 -2 217 -3 -1 -100 c-1 -55 -2 -166 -3 -247 l-1 -148 -216 0 -215 0 3
-342 c3 -338 3 -344 27 -391 15 -30 38 -58 64 -75 36 -24 50 -27 122 -26 68 0
92 5 136 27 29 14 54 25 54 24 9 -17 155 -446 155 -455 0 -19 -113 -67 -200
-87 -104 -23 -296 -30 -405 -16 -102 14 -236 56 -309 97 -80 45 -179 145 -220
224 -75 142 -79 176 -84 622 l-3 397 -137 3 -137 3 0 245 0 245 138 3 137 3 0
244 0 245 330 0 330 0 0 -245z m1520 0 l0 -245 215 0 215 0 0 -250 0 -250
-215 0 -216 0 3 -347 3 -348 25 -45 c31 -55 76 -86 138 -94 57 -8 143 7 195
34 l38 20 8 -23 c37 -98 151 -425 151 -433 0 -14 -63 -48 -125 -68 -194 -63
-482 -60 -673 7 -206 72 -344 220 -398 427 -15 55 -18 129 -21 468 l-4 402
-140 0 -139 0 0 250 0 250 140 0 140 0 0 245 0 245 330 0 330 0 0 -245z
m-3383 -161 c233 -34 440 -139 579 -292 180 -199 263 -460 239 -746 l-7 -86
-685 0 -684 0 6 -22 c14 -46 58 -117 96 -156 84 -84 194 -122 359 -122 156 0
280 39 390 123 l45 35 174 -180 174 -179 -39 -40 c-45 -47 -157 -126 -229
-162 -243 -121 -667 -142 -965 -46 -301 97 -546 335 -633 614 -48 153 -58 309
-32 472 88 542 605 878 1212 787z m5224 5 c414 -53 719 -307 816 -678 26 -101
43 -340 29 -415 l-7 -36 -684 0 -684 0 15 -42 c32 -97 131 -190 241 -230 80
-29 271 -36 366 -14 77 18 164 59 230 110 l46 35 172 -180 172 -180 -39 -40
c-92 -96 -264 -192 -405 -228 -208 -53 -498 -54 -701 -2 -360 91 -619 324
-721 648 -59 186 -55 433 11 623 151 437 622 696 1143 629z m2419 -286 l0
-298 -107 4 c-271 8 -432 -98 -479 -318 -11 -51 -14 -171 -14 -538 l0 -473
-330 0 -330 0 0 945 0 945 315 0 315 0 0 -111 0 -111 63 58 c123 116 320 189
520 193 l47 1 0 -297z"/>
<path d="M19747 11532 c-81 -202 -150 -377 -154 -390 l-5 -22 306 0 c196 0
306 4 306 10 0 8 -298 761 -304 767 -1 1 -68 -164 -149 -365z"/>
<path d="M10692 11575 c-73 -20 -108 -40 -162 -91 -45 -42 -89 -120 -105 -186
l-7 -28 385 0 386 0 -13 45 c-49 161 -181 263 -349 271 -53 3 -100 -1 -135
-11z"/>
<path d="M15957 11580 c-52 -13 -130 -54 -170 -90 -37 -32 -89 -123 -105 -182
l-10 -38 384 0 384 0 -6 28 c-10 47 -52 126 -89 170 -23 26 -63 55 -110 78
-63 31 -85 37 -157 40 -45 2 -100 -1 -121 -6z"/>
</g>
</svg>
